<svg viewBox="0 0 800 800" version="1.1" id="svg154" xmlns:xlink="http://www.w3.org/1999/xlink" xmlns="http://www.w3.org/2000/svg"><defs id="defs4"><clipPath id="clippath"><path class="cls-2" id="polygon3" d="m400 11 34 41 42-33 25 47 48-25 16 51 51-15 6 53 53-5-5 53 53 6-15 51 51 16-25 48 47 25-33 42 41 34-41 34 33 42-47 25 25 48-51 16 15 51-53 6 5 53-53-5-6 53-51-15-16 51-48-25-25 47-42-33-34 41-34-41-42 33-25-47-48 25-16-51-51 15-6-53-53 5 5-53-53-6 15-51-51-16 25-48-47-25 33-42-41-34 41-34-33-42 47-25-25-48 51-16-15-51 53-6-5-53 53 5 6-53 51 15 16-51 48 25 25-47 42 33 34-41z"/></clipPath><clipPath id="clippath-1"><path class="cls-2" d="M412 243c-133 0-139 53-161 125-38 14-64 38-64 80 0 78 68 123 226 123s198-83 198-149c0-99-66-179-199-179Z" id="path3"/></clipPath><clipPath id="clippath-2"><circle class="cls-2" cx="233.3" cy="385.6" r="58" transform="rotate(-80 233 386)" id="circle3"/></clipPath><clipPath id="clippath-3"><circle class="cls-2" cx="462.9" cy="385.6" r="58" id="circle4"/></clipPath><symbol id="New_Symbol_1" viewBox="0 0 77.1 53.7"><path class="cls-2" id="line1" d="M31 0h16"/><path class="cls-2" id="line2" d="M39 0v8"/><path class="cls-5" id="line3" d="M15 39h47"/></symbol><style id="style1">.cls-2,.cls-3,.cls-5{fill:none}.cls-11,.cls-12,.cls-13,.cls-14,.cls-15,.cls-2,.cls-8,.cls-9{stroke-width:0}.cls-3,.cls-5{stroke-width:60px;stroke-linecap:round;stroke-linejoin:round;stroke:#000}.cls-5{stroke-width:30px}.cls-9{fill:#f7cb46}.cls-11{fill:#0f26f4}.cls-12{fill:#ffdc8d}.cls-13{fill:#fff}.cls-14{fill:#fff0dc}.cls-15{fill:#edaf32}</style></defs><g id="Layer_1" transform="translate(-155 -183) scale(1.45196)"><path class="cls-11" d="M412 243c-133 0-139 53-161 125-38 14-64 38-64 80 0 78 68 123 226 123 157 0 198-83 198-149 0-99-66-179-199-179z" id="path120"/><path class="cls-11" d="M503 259s95-42 111-26-36 143-36 143l-75-117Z" id="path121"/><path class="cls-3" d="M412 243c-133 0-139 53-161 125-38 14-64 38-64 80 0 78 68 123 226 123 157 0 198-83 198-149v0c0-99-66-179-199-179z" id="path122"/><path class="cls-3" d="M503 259s95-42 111-26-36 143-36 143l-75-117Z" id="path123"/><path class="cls-9" d="M412 243c-133 0-139 53-161 125-38 14-64 38-64 80 0 78 68 123 226 123 157 0 198-83 198-149 0-99-66-179-199-179z" id="path124"/><path class="cls-9" d="M503 259s95-42 111-26-36 143-36 143l-75-117Z" id="path125"/><path class="cls-11" d="M348 260s-95-41-111-25c-16 17 38 143 38 143z" id="path126"/><path class="cls-3" d="M412 243c-133 0-139 53-161 125-38 14-64 38-64 80 0 78 68 123 226 123 157 0 198-83 198-149v0c0-99-66-179-199-179z" id="path127"/><path class="cls-3" d="M503 259s95-42 111-26-36 143-36 143l-75-117Z" id="path128"/><path class="cls-3" d="M412 243c-133 0-139 53-161 125-38 14-64 38-64 80 0 78 68 123 226 123 157 0 198-83 198-149v0c0-99-66-179-199-179z" id="path129"/><path class="cls-3" d="M503 259s95-42 111-26-36 143-36 143l-75-117Z" id="path130"/><path class="cls-3" d="M412 243c-133 0-139 53-161 125-38 14-64 38-64 80 0 78 68 123 226 123 157 0 198-83 198-149v0c0-99-66-179-199-179z" id="path131"/><path class="cls-3" d="M503 259s95-42 111-26-36 143-36 143l-75-117Z" id="path132"/><path class="cls-3" d="M348 260s-95-41-111-25c-16 17 38 143 38 143z" id="path133"/><path class="cls-12" d="M412 243c-133 0-139 53-161 125-38 14-64 38-64 80 0 78 68 123 226 123 157 0 198-83 198-149 0-99-66-179-199-179z" id="path134"/><path class="cls-12" d="M503 259s95-42 111-26-36 143-36 143l-75-117Z" id="path135"/><path class="cls-12" d="M412 243c-133 0-139 53-161 125-38 14-64 38-64 80 0 78 68 123 226 123 157 0 198-83 198-149 0-99-66-179-199-179z" id="path136"/><path class="cls-12" d="M503 259s95-42 111-26-36 143-36 143l-75-117Z" id="path137"/><path class="cls-12" d="M412 243c-133 0-139 53-161 125-38 14-64 38-64 80 0 78 68 123 226 123 157 0 198-83 198-149 0-99-66-179-199-179z" id="path138"/><path class="cls-12" d="M503 259s95-42 111-26-36 143-36 143l-75-117Z" id="path139"/><path class="cls-12" d="M348 260s-95-41-111-25c-16 17 38 143 38 143z" id="path140"/><path class="cls-15" d="m573 338-20-39c-12-19 40-41 45-35 4 6-10 43-25 74z" id="path141"/><g clip-path="url(#clippath-1)" id="g146" style="clip-path:url(#clippath-1)"><path class="cls-14" d="M629 543c0 107-139 55-272 55-132 0-208 52-208-55s76-123 208-123c133 0 272 16 272 123z" id="path142"/><path class="cls-14" d="M436 417c0 46-36 119-81 119s-82-73-82-119 37-84 82-84 81 38 81 84z" id="path143"/><path class="cls-15" d="M358 226s-74 72-49 75c26 2 100-84 100-84z" id="path144"/><path class="cls-15" d="M423 226s-75 72-49 75c25 2 100-84 100-84z" id="path145"/><path class="cls-15" d="M491 226s-75 72-49 75c25 2 100-84 100-84z" id="path146"/></g><use width="77.1" height="53.7" transform="translate(310 386)" xlink:href="#New_Symbol_1" id="use146"/><path class="cls-5" id="line146" d="m169 400-31-4"/><path class="cls-5" id="line147" d="M167 440h-36"/><path class="cls-5" id="line148" d="m172 478-32 3"/><path class="cls-5" id="line149" d="m545 400 31-4"/><path class="cls-5" id="line150" d="M547 440h36"/><path class="cls-5" id="line151" d="m542 478 32 3"/><path d="m335 397-17-18c-9-9-3-24 10-24h35c13 0 19 15 10 24l-17 18c-6 5-15 5-21 0z" id="path151" style="fill-rule:evenodd;stroke-width:0"/><circle class="cls-13" cx="233.3" cy="385.6" r="58" transform="rotate(-80 233 386)" id="circle151"/><circle class="cls-13" cx="462.9" cy="385.6" r="58" id="circle152"/><g clip-path="url(#clippath-2)" id="g153" style="clip-path:url(#clippath-2)"><circle class="cls-8" cx="233.3" cy="385.6" r="38.7" transform="rotate(-80 233 386)" id="circle153"/></g><g clip-path="url(#clippath-3)" id="g154" style="clip-path:url(#clippath-3)"><circle class="cls-8" cx="462.9" cy="385.6" r="38.7" id="circle154"/></g></g></svg>